<svg width="32" height="32" viewBox="0 0 32 32" fill="none" xmlns="http://www.w3.org/2000/svg">
<path d="M6.33752 23.1125C7.43526 20.9025 8.00439 18.4676 8.00002 16C8.00107 14.8002 8.27112 13.616 8.7903 12.5343C9.30948 11.4527 10.0646 10.5013 11 9.75" stroke="white" stroke-width="2" stroke-linecap="round" stroke-linejoin="round"/>
<path d="M16 16C16.0054 20.0671 14.9728 24.0684 13 27.625" stroke="white" stroke-width="2" stroke-linecap="round" stroke-linejoin="round"/>
<path d="M12 16C12 14.9391 12.4214 13.9217 13.1716 13.1716C13.9217 12.4214 14.9391 12 16 12C17.0609 12 18.0783 12.4214 18.8284 13.1716C19.5786 13.9217 20 14.9391 20 16C20.0083 20.1233 19.0988 24.1968 17.3375 27.925" stroke="white" stroke-width="2" stroke-linecap="round" stroke-linejoin="round"/>
<path d="M27.325 23C27.7728 20.6935 27.9988 18.3495 28 16C28 12.8174 26.7357 9.76516 24.4853 7.51472C22.2348 5.26428 19.1826 4 16 4C12.8174 4 9.76516 5.26428 7.51472 7.51472C5.26428 9.76516 4 12.8174 4 16C4.00358 17.363 3.77097 18.7164 3.3125 20" stroke="white" stroke-width="2" stroke-linecap="round" stroke-linejoin="round"/>
<path d="M11.6 20C11.1683 22.1032 10.4045 24.1243 9.33752 25.9875" stroke="white" stroke-width="2" stroke-linecap="round" stroke-linejoin="round"/>
<path d="M15 8.0625C15.3319 8.02261 15.6657 8.00174 16 8C18.1217 8 20.1566 8.84285 21.6569 10.3431C23.1571 11.8434 24 13.8783 24 16C23.9988 17.3372 23.9154 18.6731 23.75 20" stroke="white" stroke-width="2" stroke-linecap="round" stroke-linejoin="round"/>
<path d="M22.9875 24C22.8 24.7375 22.5875 25.475 22.35 26.1875" stroke="white" stroke-width="2" stroke-linecap="round" stroke-linejoin="round"/>
</svg>
