<svg width="33" height="32" viewBox="0 0 33 32" fill="none" xmlns="http://www.w3.org/2000/svg">
<path d="M25.5 14V25.1125C25.5 25.3479 25.4065 25.5736 25.2401 25.7401C25.0736 25.9065 24.8479 26 24.6125 26H5.5C5.23478 26 4.98043 25.8946 4.79289 25.7071C4.60536 25.5196 4.5 25.2652 4.5 25V11C4.5 10.7348 4.60536 10.4804 4.79289 10.2929C4.98043 10.1054 5.23478 10 5.5 10H11.1625C11.3787 10.0009 11.589 10.071 11.7625 10.2L15.2375 12.8C15.411 12.929 15.6213 12.9991 15.8375 13H24.5C24.7652 13 25.0196 13.1054 25.2071 13.2929C25.3946 13.4804 25.5 13.7348 25.5 14Z" stroke="white" stroke-width="2" stroke-linecap="round" stroke-linejoin="round"/>
<path d="M25.5 14V25.1125C25.5 25.3479 25.4065 25.5736 25.2401 25.7401C25.0736 25.9065 24.8479 26 24.6125 26H5.5C5.23478 26 4.98043 25.8946 4.79289 25.7071C4.60536 25.5196 4.5 25.2652 4.5 25V11C4.5 10.7348 4.60536 10.4804 4.79289 10.2929C4.98043 10.1054 5.23478 10 5.5 10H11.1625C11.3787 10.0009 11.589 10.071 11.7625 10.2L15.2375 12.8C15.411 12.929 15.6213 12.9991 15.8375 13H24.5C24.7652 13 25.0196 13.1054 25.2071 13.2929C25.3946 13.4804 25.5 13.7348 25.5 14Z" stroke="white" stroke-width="2" stroke-linecap="round" stroke-linejoin="round"/>
<path d="M8.5 10V7C8.5 6.73478 8.60536 6.48043 8.79289 6.29289C8.98043 6.10536 9.23478 6 9.5 6H15.1625C15.3787 6.00089 15.589 6.07098 15.7625 6.2L19.2375 8.8C19.411 8.92902 19.6213 8.99911 19.8375 9H28.5C28.7652 9 29.0196 9.10536 29.2071 9.29289C29.3946 9.48043 29.5 9.73478 29.5 10V21.1125C29.5 21.3479 29.4065 21.5736 29.2401 21.7401C29.0736 21.9065 28.8479 22 28.6125 22H25.5" stroke="white" stroke-width="2" stroke-linecap="round" stroke-linejoin="round"/>
</svg>
