<svg width="256" height="256" viewBox="0 0 256 256" fill="none" xmlns="http://www.w3.org/2000/svg">
<path d="M128 224C181.019 224 224 181.019 224 128C224 74.9807 181.019 32 128 32C74.9807 32 32 74.9807 32 128C32 181.019 74.9807 224 128 224Z" stroke="#EF4444" stroke-width="16" stroke-miterlimit="10"/>
<path d="M103.5 108C103.5 114.351 98.3513 119.5 92 119.5C85.6487 119.5 80.5 114.351 80.5 108C80.5 101.649 85.6487 96.5 92 96.5C98.3513 96.5 103.5 101.649 103.5 108Z" fill="black" stroke="#EF4444"/>
<path d="M175.5 108C175.5 114.351 170.351 119.5 164 119.5C157.649 119.5 152.5 114.351 152.5 108C152.5 101.649 157.649 96.5 164 96.5C170.351 96.5 175.5 101.649 175.5 108Z" fill="black" stroke="#EF4444"/>
<path d="M103.5 108C103.5 114.351 98.3513 119.5 92 119.5C85.6487 119.5 80.5 114.351 80.5 108C80.5 101.649 85.6487 96.5 92 96.5C98.3513 96.5 103.5 101.649 103.5 108Z" fill="#EF4444" stroke="#EF4444"/>
<path d="M175.5 108C175.5 114.351 170.351 119.5 164 119.5C157.649 119.5 152.5 114.351 152.5 108C152.5 101.649 157.649 96.5 164 96.5C170.351 96.5 175.5 101.649 175.5 108Z" fill="#EF4444" stroke="#EF4444"/>
<path d="M169.6 176C165.371 168.714 159.302 162.666 152.002 158.463C144.701 154.259 136.424 152.046 128 152.046C119.575 152.046 111.299 154.259 103.998 158.463C96.6975 162.666 90.629 168.714 86.3999 176" stroke="#EF4444" stroke-width="16" stroke-linecap="round" stroke-linejoin="round"/>
</svg>
