<svg width="33" height="32" viewBox="0 0 33 32" fill="none" xmlns="http://www.w3.org/2000/svg">
<path d="M16.5 22.5C19.2614 22.5 21.5 20.2614 21.5 17.5C21.5 14.7386 19.2614 12.5 16.5 12.5C13.7386 12.5 11.5 14.7386 11.5 17.5C11.5 20.2614 13.7386 22.5 16.5 22.5Z" stroke="white" stroke-width="2" stroke-linecap="round" stroke-linejoin="round"/>
<path d="M25 14.5C26.1647 14.4981 27.3137 14.7683 28.3554 15.2892C29.3972 15.81 30.3028 16.5671 31 17.5" stroke="white" stroke-width="2" stroke-linecap="round" stroke-linejoin="round"/>
<path d="M2 17.5C2.69725 16.5671 3.60285 15.81 4.64457 15.2892C5.6863 14.7683 6.83532 14.4981 8 14.5" stroke="white" stroke-width="2" stroke-linecap="round" stroke-linejoin="round"/>
<path d="M9.29999 27C9.95852 25.6513 10.9826 24.5148 12.2555 23.7197C13.5285 22.9247 14.9992 22.5032 16.5 22.5032C18.0008 22.5032 19.4715 22.9247 20.7444 23.7197C22.0174 24.5148 23.0415 25.6513 23.7 27" stroke="white" stroke-width="2" stroke-linecap="round" stroke-linejoin="round"/>
<path d="M7.99997 14.5C7.24077 14.5008 6.49703 14.2855 5.85566 13.8792C5.21428 13.473 4.70175 12.8927 4.37795 12.206C4.05416 11.5193 3.93247 10.7546 4.02711 10.0014C4.12176 9.24809 4.42881 8.5373 4.91241 7.95206C5.39601 7.36681 6.03618 6.93127 6.75811 6.69634C7.48004 6.4614 8.25393 6.43677 8.98934 6.62532C9.72475 6.81388 10.3913 7.20782 10.9111 7.76113C11.431 8.31444 11.7826 9.00427 11.925 9.75" stroke="white" stroke-width="2" stroke-linecap="round" stroke-linejoin="round"/>
<path d="M21.075 9.75C21.2174 9.00427 21.569 8.31444 22.0888 7.76113C22.6087 7.20782 23.2752 6.81388 24.0106 6.62532C24.7461 6.43677 25.5199 6.4614 26.2419 6.69634C26.9638 6.93127 27.604 7.36681 28.0876 7.95206C28.5712 8.5373 28.8782 9.24809 28.9729 10.0014C29.0675 10.7546 28.9458 11.5193 28.622 12.206C28.2982 12.8927 27.7857 13.473 27.1443 13.8792C26.5029 14.2855 25.7592 14.5008 25 14.5" stroke="white" stroke-width="2" stroke-linecap="round" stroke-linejoin="round"/>
</svg>
