<svg width="42" height="40" viewBox="0 0 42 40" fill="none" xmlns="http://www.w3.org/2000/svg">
<path d="M21 39.8984C10.0104 39.8984 1.10156 30.9896 1.10156 20C1.10156 9.0104 10.0104 0.101562 21 0.101562C31.9896 0.101562 40.8984 9.0104 40.8984 20C40.8984 30.9896 31.9896 39.8984 21 39.8984Z" fill="#0F172A" stroke="white" stroke-width="0.203125"/>
<path d="M12.875 32.5C15.2912 32.5 17.25 30.5412 17.25 28.125C17.25 25.7088 15.2912 23.75 12.875 23.75C10.4588 23.75 8.5 25.7088 8.5 28.125C8.5 30.5412 10.4588 32.5 12.875 32.5Z" fill="#0F172A" stroke="white" stroke-width="3.25" stroke-linecap="round" stroke-linejoin="round"/>
<path d="M29.125 32.5C31.5412 32.5 33.5 30.5412 33.5 28.125C33.5 25.7088 31.5412 23.75 29.125 23.75C26.7088 23.75 24.75 25.7088 24.75 28.125C24.75 30.5412 26.7088 32.5 29.125 32.5Z" fill="#0F172A" stroke="white" stroke-width="3.25" stroke-linecap="round" stroke-linejoin="round"/>
<path d="M17.25 28.125H24.75" stroke="white" stroke-width="3.25" stroke-linecap="round" stroke-linejoin="round"/>
<path d="M2.25 18.75H39.75" stroke="white" stroke-width="3.25" stroke-linecap="round" stroke-linejoin="round"/>
<path d="M7.25 18.75L14.9531 7.75004C15.0692 7.58332 15.2241 7.44741 15.4045 7.35405C15.5849 7.26069 15.7854 7.2127 15.9885 7.21424C16.1916 7.21578 16.3913 7.2668 16.5703 7.36288C16.7493 7.45896 16.9021 7.59721 17.0156 7.76566L19.9531 12.1875C20.0667 12.3616 20.2219 12.5047 20.4047 12.6037C20.5875 12.7026 20.7921 12.7545 21 12.7545C21.2079 12.7545 21.4125 12.7026 21.5953 12.6037C21.7781 12.5047 21.9333 12.3616 22.0469 12.1875L24.9844 7.76566C25.0979 7.59721 25.2508 7.45896 25.4297 7.36288C25.6087 7.2668 25.8084 7.21578 26.0115 7.21424C26.2146 7.2127 26.4151 7.26069 26.5955 7.35405C26.7759 7.44741 26.9308 7.58332 27.0469 7.75004L34.75 18.75" fill="#0F172A"/>
<path d="M7.25 18.75L14.9531 7.75004C15.0692 7.58332 15.2241 7.44741 15.4045 7.35405C15.5849 7.26069 15.7854 7.2127 15.9885 7.21424C16.1916 7.21578 16.3913 7.2668 16.5703 7.36288C16.7493 7.45896 16.9021 7.59721 17.0156 7.76566L19.9531 12.1875C20.0667 12.3616 20.2219 12.5047 20.4047 12.6037C20.5875 12.7026 20.7921 12.7545 21 12.7545C21.2079 12.7545 21.4125 12.7026 21.5953 12.6037C21.7781 12.5047 21.9333 12.3616 22.0469 12.1875L24.9844 7.76566C25.0979 7.59721 25.2508 7.45896 25.4297 7.36288C25.6087 7.2668 25.8084 7.21578 26.0115 7.21424C26.2146 7.2127 26.4151 7.26069 26.5955 7.35405C26.7759 7.44741 26.9308 7.58332 27.0469 7.75004L34.75 18.75" stroke="white" stroke-width="3.25" stroke-linecap="round" stroke-linejoin="round"/>
</svg>
