<svg width="36" height="36" viewBox="0 0 36 36" fill="none" xmlns="http://www.w3.org/2000/svg">
<path d="M4 2.0625H32C33.0701 2.0625 33.9375 2.92995 33.9375 4V32C33.9375 33.0701 33.0701 33.9375 32 33.9375H4C2.92995 33.9375 2.0625 33.0701 2.0625 32V4C2.0625 2.92995 2.92995 2.0625 4 2.0625Z" fill="#0F172A" stroke="white" stroke-width="0.125"/>
<path d="M12.5 32C12.8944 32.0017 13.2853 31.9252 13.65 31.775C14.0147 31.6248 14.3461 31.4039 14.625 31.125C14.9039 30.8461 15.1248 30.5147 15.275 30.15C15.4252 29.7853 15.5017 29.3944 15.5 29V23" fill="#0F172A"/>
<path d="M12.5 32C12.8944 32.0017 13.2853 31.9252 13.65 31.775C14.0147 31.6248 14.3461 31.4039 14.625 31.125C14.9039 30.8461 15.1248 30.5147 15.275 30.15C15.4252 29.7853 15.5017 29.3944 15.5 29V23" stroke="white" stroke-width="2" stroke-linecap="round" stroke-linejoin="round"/>
<path d="M23.5 32C23.1056 32.0017 22.7147 31.9252 22.35 31.775C21.9853 31.6248 21.6539 31.4039 21.375 31.125C21.0961 30.8461 20.8752 30.5147 20.725 30.15C20.5748 29.7853 20.4984 29.3944 20.5 29V23" fill="#0F172A"/>
<path d="M23.5 32C23.1056 32.0017 22.7147 31.9252 22.35 31.775C21.9853 31.6248 21.6539 31.4039 21.375 31.125C21.0961 30.8461 20.8752 30.5147 20.725 30.15C20.5748 29.7853 20.4984 29.3944 20.5 29V23" stroke="white" stroke-width="2" stroke-linecap="round" stroke-linejoin="round"/>
<path d="M21 23H23C23.3944 22.9984 23.7853 23.0748 24.15 23.225C24.5147 23.3752 24.8461 23.5961 25.125 23.875C25.4039 24.1539 25.6248 24.4853 25.775 24.85C25.9252 25.2147 26.0017 25.6056 26 26V27C25.9983 27.3945 26.0748 27.7853 26.225 28.15C26.3752 28.5148 26.5961 28.8461 26.875 29.125C27.1539 29.4039 27.4853 29.6249 27.85 29.775C28.2147 29.9252 28.6056 30.0017 29 30" fill="#0F172A"/>
<path d="M21 23H23C23.3944 22.9984 23.7853 23.0748 24.15 23.225C24.5147 23.3752 24.8461 23.5961 25.125 23.875C25.4039 24.1539 25.6248 24.4853 25.775 24.85C25.9252 25.2147 26.0017 25.6056 26 26V27C25.9983 27.3945 26.0748 27.7853 26.225 28.15C26.3752 28.5148 26.5961 28.8461 26.875 29.125C27.1539 29.4039 27.4853 29.6249 27.85 29.775C28.2147 29.9252 28.6056 30.0017 29 30" stroke="white" stroke-width="2" stroke-linecap="round" stroke-linejoin="round"/>
<path d="M15 23H13C12.6056 22.9984 12.2147 23.0748 11.85 23.225C11.4853 23.3752 11.1539 23.5961 10.875 23.875C10.5961 24.1539 10.3752 24.4853 10.225 24.85C10.0748 25.2147 9.99835 25.6056 10 26V27C10.0017 27.3945 9.92519 27.7853 9.77501 28.15C9.62483 28.5148 9.40391 28.8461 9.12501 29.125C8.8461 29.4039 8.51473 29.6249 8.15 29.775C7.78528 29.9252 7.39443 30.0017 7 30" fill="#0F172A"/>
<path d="M15 23H13C12.6056 22.9984 12.2147 23.0748 11.85 23.225C11.4853 23.3752 11.1539 23.5961 10.875 23.875C10.5961 24.1539 10.3752 24.4853 10.225 24.85C10.0748 25.2147 9.99835 25.6056 10 26V27C10.0017 27.3945 9.92519 27.7853 9.77501 28.15C9.62483 28.5148 9.40391 28.8461 9.12501 29.125C8.8461 29.4039 8.51473 29.6249 8.15 29.775C7.78528 29.9252 7.39443 30.0017 7 30" stroke="white" stroke-width="2" stroke-linecap="round" stroke-linejoin="round"/>
<path d="M15.975 10C15.3875 9.08064 14.5781 8.32394 13.6212 7.79966C12.6644 7.27537 11.591 7.00037 10.5 7C10.0149 7.83972 9.72379 8.77735 9.64809 9.74417C9.57239 10.711 9.71399 11.6825 10.0625 12.5875C9.37901 13.5951 9.00929 14.7825 9 16V17C9 18.5913 9.63214 20.1174 10.7574 21.2426C11.8826 22.3679 13.4087 23 15 23H21C22.5913 23 24.1174 22.3679 25.2426 21.2426C26.3679 20.1174 27 18.5913 27 17V16C26.9907 14.7825 26.621 13.5951 25.9375 12.5875C26.286 11.6825 26.4276 10.711 26.3519 9.74417C26.2762 8.77735 25.9851 7.83972 25.5 7C24.409 7.00037 23.3356 7.27537 22.3787 7.79966C21.4219 8.32394 20.6125 9.08064 20.025 10H15.975Z" fill="#0F172A" stroke="white" stroke-width="2" stroke-linecap="round" stroke-linejoin="round"/>
</svg>
