<svg width="36" height="36" viewBox="0 0 36 36" fill="none" xmlns="http://www.w3.org/2000/svg">
<path d="M4 2.0625H32C33.0701 2.0625 33.9375 2.92995 33.9375 4V32C33.9375 33.0701 33.0701 33.9375 32 33.9375H4C2.92995 33.9375 2.0625 33.0701 2.0625 32V4C2.0625 2.92995 2.92995 2.0625 4 2.0625Z" fill="#0F172A" stroke="white" stroke-width="0.125"/>
<path d="M18 13C18 10.25 20.3125 7.96253 23.0625 8.00003C24.0256 8.01115 24.9649 8.30018 25.7676 8.83237C26.5704 9.36457 27.2023 10.1173 27.5875 11H32L27.9625 15.0375C27.7019 19.0932 25.9066 22.8975 22.9415 25.6769C19.9764 28.4562 16.0641 30.002 12 30C8 30 7 28.5 7 28.5C7 28.5 11 27 13 24C13 24 5 20 7 9.00003C7 9.00003 12 14 18 15V13Z" fill="#0F172A" stroke="white" stroke-width="2" stroke-linecap="round" stroke-linejoin="round"/>
</svg>
