<svg width="116" height="113" viewBox="0 0 116 113" fill="none" xmlns="http://www.w3.org/2000/svg">
<path d="M26.2197 109C27.7974 109.007 29.3608 108.701 30.8197 108.1C32.2786 107.499 33.6041 106.616 34.7197 105.5C35.8354 104.384 36.719 103.059 37.3197 101.6C37.9205 100.141 38.2263 98.5777 38.2197 97V73" stroke="#F6F7F9" stroke-width="7.8125" stroke-linecap="round" stroke-linejoin="round"/>
<path d="M70.2198 109C68.6421 109.007 67.0787 108.701 65.6198 108.1C64.1609 107.499 62.8354 106.616 61.7198 105.5C60.6042 104.384 59.7205 103.059 59.1198 101.6C58.5191 100.141 58.2132 98.5777 58.2198 97V73" stroke="#F6F7F9" stroke-width="7.8125" stroke-linecap="round" stroke-linejoin="round"/>
<path d="M60.2197 73.0001H68.2197C69.7974 72.9935 71.3608 73.2994 72.8197 73.9001C74.2786 74.5008 75.6041 75.3844 76.7197 76.5001C77.8354 77.6157 78.719 78.9412 79.3197 80.4001C79.9204 81.859 80.2263 83.4224 80.2197 85.0001V89.0001C80.2131 90.5778 80.519 92.1412 81.1197 93.6001C81.7204 95.059 82.604 96.3845 83.7197 97.5001C84.8353 98.6157 86.1608 99.4994 87.6197 100.1C89.0786 100.701 90.642 101.007 92.2197 101" stroke="#F6F7F9" stroke-width="7.8125" stroke-linecap="round" stroke-linejoin="round"/>
<path d="M36.2197 73.0001H28.2197C26.642 72.9935 25.0786 73.2994 23.6197 73.9001C22.1608 74.5008 20.8353 75.3844 19.7197 76.5001C18.6041 77.6157 17.7204 78.9412 17.1197 80.4001C16.519 81.859 16.2131 83.4224 16.2197 85.0001V89.0001C16.2263 90.5778 15.9205 92.1412 15.3197 93.6001C14.719 95.059 13.8354 96.3845 12.7197 97.5001C11.6041 98.6157 10.2786 99.4994 8.81974 100.1C7.36085 100.701 5.79744 101.007 4.21973 101" stroke="#F6F7F9" stroke-width="7.8125" stroke-linecap="round" stroke-linejoin="round"/>
<path d="M36.2197 49C39.5334 49 42.2197 46.3138 42.2197 43C42.2197 39.6863 39.5334 37 36.2197 37C32.906 37 30.2197 39.6863 30.2197 43C30.2197 46.3138 32.906 49 36.2197 49Z" stroke="#F6F7F9" stroke-width="2" stroke-linecap="round" stroke-linejoin="round"/>
<path d="M60.2197 49C63.5334 49 66.2197 46.3138 66.2197 43C66.2197 39.6863 63.5334 37 60.2197 37C56.906 37 54.2197 39.6863 54.2197 43C54.2197 46.3138 56.906 49 60.2197 49Z" stroke="#F6F7F9" stroke-width="2" stroke-linecap="round" stroke-linejoin="round"/>
<path d="M42.2197 43.0001H54.2197" stroke="#F6F7F9" stroke-width="2" stroke-linecap="round" stroke-linejoin="round"/>
<path d="M14.3286 44C14.5312 43.2376 14.8074 42.5023 15.1412 41.8366C15.4751 41.1709 15.86 40.5879 16.2738 40.1213C16.6876 39.6547 17.122 39.3137 17.552 39.118C17.9821 38.9222 18.3992 38.8757 18.7793 38.981L29.8875 41.9574" stroke="#F6F7F9" stroke-width="2" stroke-linecap="round" stroke-linejoin="round"/>
<path d="M66.3285 41.6776L77.4367 38.7012C77.8168 38.5959 78.2339 38.6425 78.664 38.8382C79.094 39.034 79.5284 39.375 79.9422 39.8416C80.356 40.3082 80.7409 40.8912 81.0748 41.5569C81.4086 42.2226 81.6848 42.9579 81.8874 43.7203" stroke="#F6F7F9" stroke-width="2" stroke-linecap="round" stroke-linejoin="round"/>
<path d="M40.1197 21C37.7698 17.3225 34.532 14.2958 30.7047 12.1986C26.8774 10.1015 22.5839 9.00149 18.2197 9C16.2792 12.3589 15.1149 16.1094 14.8121 19.9767C14.5093 23.844 15.0757 27.73 16.4697 31.35C13.7358 35.3802 12.2569 40.13 12.2197 45V49C12.2197 55.3651 14.7483 61.4696 19.2492 65.9705C23.75 70.4714 29.8545 72.9999 36.2197 72.9999H60.2197C66.5849 72.9999 72.6894 70.4714 77.1902 65.9705C81.6911 61.4696 84.2196 55.3651 84.2196 49V45C84.1825 40.13 82.7036 35.3802 79.9697 31.35C81.3637 27.73 81.9301 23.844 81.6273 19.9767C81.3245 16.1094 80.1602 12.3589 78.2197 9C73.8555 9.00149 69.5619 10.1015 65.7347 12.1986C61.9074 14.2958 58.6696 17.3225 56.3197 21H40.1197Z" stroke="#F6F7F9" stroke-width="7.8125" stroke-linecap="round" stroke-linejoin="round"/>
<path d="M8.21973 30H88.2197" stroke="#F6F7F9" stroke-width="5" stroke-linecap="round" stroke-linejoin="round"/>
<path d="M18.3906 28L35.1974 4.16124C35.4507 3.79994 35.7887 3.50539 36.1823 3.30306C36.5759 3.10074 37.0132 2.99674 37.4564 3.00008C37.8996 3.00341 38.3353 3.11398 38.7258 3.3222C39.1163 3.53043 39.4498 3.83004 39.6974 4.1951L46.1065 13.778C46.3544 14.1553 46.693 14.4653 47.0919 14.6798C47.4907 14.8943 47.9371 15.0067 48.3906 15.0067C48.8442 15.0067 49.2906 14.8943 49.6894 14.6798C50.0882 14.4653 50.4269 14.1553 50.6747 13.778L57.0838 4.1951C57.3315 3.83004 57.665 3.53043 58.0555 3.3222C58.446 3.11398 58.8816 3.00341 59.3248 3.00008C59.768 2.99674 60.2053 3.10074 60.5989 3.30306C60.9926 3.50539 61.3306 3.79994 61.5838 4.16124L78.3906 28" fill="#F6F7F9"/>
<path d="M18.3906 28L35.1974 4.16124C35.4507 3.79994 35.7887 3.50539 36.1823 3.30306C36.5759 3.10074 37.0132 2.99674 37.4564 3.00008C37.8996 3.00341 38.3353 3.11398 38.7258 3.3222C39.1163 3.53043 39.4498 3.83004 39.6974 4.1951L46.1065 13.778C46.3544 14.1553 46.693 14.4653 47.0919 14.6798C47.4907 14.8943 47.9371 15.0067 48.3906 15.0067C48.8442 15.0067 49.2906 14.8943 49.6894 14.6798C50.0882 14.4653 50.4269 14.1553 50.6747 13.778L57.0838 4.1951C57.3315 3.83004 57.665 3.53043 58.0555 3.3222C58.446 3.11398 58.8816 3.00341 59.3248 3.00008C59.768 2.99674 60.2053 3.10074 60.5989 3.30306C60.9926 3.50539 61.3306 3.79994 61.5838 4.16124L78.3906 28" stroke="#F6F7F9" stroke-width="5.4179" stroke-linecap="round" stroke-linejoin="round"/>
<path d="M94.7554 88.9644L81.8568 105.412" stroke="#F6F7F9" stroke-width="4" stroke-linecap="round" stroke-linejoin="round"/>
<path d="M101.78 89.6629C108.408 89.6629 113.78 84.2903 113.78 77.6629C113.78 71.0355 108.408 65.6629 101.78 65.6629C95.153 65.6629 89.7804 71.0355 89.7804 77.6629C89.7804 84.2903 95.153 89.6629 101.78 89.6629Z" stroke="#F6F7F9" stroke-width="4" stroke-linecap="round" stroke-linejoin="round"/>
</svg>
