<svg width="97" height="108" viewBox="0 0 97 108" fill="none" xmlns="http://www.w3.org/2000/svg">
<path d="M26.5 104C28.0777 104.007 29.6411 103.701 31.1 103.1C32.5589 102.499 33.8844 101.616 35 100.5C36.1157 99.3844 36.9993 98.0589 37.6 96.6C38.2007 95.1411 38.5066 93.5777 38.5 92V68" stroke="white" stroke-width="7.8125" stroke-linecap="round" stroke-linejoin="round"/>
<path d="M70.5001 104C68.9224 104.007 67.359 103.701 65.9001 103.1C64.4412 102.499 63.1157 101.616 62.0001 100.5C60.8845 99.3844 60.0008 98.0589 59.4001 96.6C58.7994 95.1411 58.4935 93.5777 58.5001 92V68" stroke="white" stroke-width="7.8125" stroke-linecap="round" stroke-linejoin="round"/>
<path d="M60.5 68.0001H68.5C70.0777 67.9935 71.6411 68.2994 73.1 68.9001C74.5589 69.5008 75.8844 70.3845 77 71.5001C78.1157 72.6157 78.9993 73.9412 79.6 75.4001C80.2007 76.859 80.5066 78.4224 80.5 80.0001V84.0001C80.4934 85.5778 80.7993 87.1412 81.4 88.6001C82.0007 90.059 82.8843 91.3845 84 92.5001C85.1156 93.6158 86.4411 94.4994 87.9 95.1001C89.3589 95.7008 90.9223 96.0067 92.5 96.0001" stroke="white" stroke-width="7.8125" stroke-linecap="round" stroke-linejoin="round"/>
<path d="M36.5 68.0001H28.5C26.9223 67.9935 25.3589 68.2994 23.9 68.9001C22.4411 69.5008 21.1156 70.3845 20 71.5001C18.8843 72.6157 18.0007 73.9412 17.4 75.4001C16.7993 76.859 16.4934 78.4224 16.5 80.0001V84.0001C16.5066 85.5778 16.2007 87.1412 15.6 88.6001C14.9993 90.059 14.1157 91.3845 13 92.5001C11.8844 93.6158 10.5589 94.4994 9.10002 95.1001C7.64112 95.7008 6.07771 96.0067 4.5 96.0001" stroke="white" stroke-width="7.8125" stroke-linecap="round" stroke-linejoin="round"/>
<path d="M40.4 16C38.0501 12.3225 34.8123 9.29576 30.985 7.19863C27.1577 5.1015 22.8642 4.00149 18.5 4C16.5595 7.35888 15.3952 11.1094 15.0924 14.9767C14.7896 18.844 15.3559 22.73 16.75 26.35C14.016 30.3803 12.5372 35.1301 12.5 40V44C12.5 50.3652 15.0286 56.4697 19.5294 60.9706C24.0303 65.4714 30.1348 68 36.5 68H60.5C66.8652 68 72.9697 65.4714 77.4706 60.9706C81.9714 56.4697 84.5 50.3652 84.5 44V40C84.4628 35.1301 82.984 30.3803 80.25 26.35C81.6441 22.73 82.2104 18.844 81.9076 14.9767C81.6048 11.1094 80.4405 7.35888 78.5 4C74.1358 4.00149 69.8423 5.1015 66.015 7.19863C62.1877 9.29576 58.9499 12.3225 56.6 16H40.4Z" stroke="white" stroke-width="7.8125" stroke-linecap="round" stroke-linejoin="round"/>
</svg>
