<svg width="116" height="113" viewBox="0 0 116 113" fill="none" xmlns="http://www.w3.org/2000/svg">
<path d="M26.2197 109C27.7974 109.007 29.3608 108.701 30.8197 108.1C32.2786 107.499 33.6041 106.616 34.7197 105.5C35.8353 104.384 36.719 103.059 37.3197 101.6C37.9204 100.141 38.2263 98.5777 38.2197 97V73" stroke="white" stroke-width="7.8125" stroke-linecap="round" stroke-linejoin="round"/>
<path d="M70.2197 109C68.642 109.007 67.0786 108.701 65.6197 108.1C64.1608 107.499 62.8353 106.616 61.7197 105.5C60.6041 104.384 59.7204 103.059 59.1197 101.6C58.519 100.141 58.2131 98.5777 58.2197 97V73" stroke="white" stroke-width="7.8125" stroke-linecap="round" stroke-linejoin="round"/>
<path d="M60.2196 73.0001H68.2196C69.7973 72.9935 71.3607 73.2994 72.8196 73.9001C74.2785 74.5008 75.604 75.3844 76.7196 76.5001C77.8352 77.6157 78.7189 78.9412 79.3196 80.4001C79.9203 81.859 80.2262 83.4224 80.2196 85.0001V89.0001C80.213 90.5778 80.5188 92.1412 81.1196 93.6001C81.7203 95.059 82.6039 96.3845 83.7195 97.5001C84.8352 98.6157 86.1607 99.4994 87.6196 100.1C89.0785 100.701 90.6419 101.007 92.2196 101" stroke="white" stroke-width="7.8125" stroke-linecap="round" stroke-linejoin="round"/>
<path d="M36.2196 73.0001H28.2196C26.6419 72.9935 25.0785 73.2994 23.6196 73.9001C22.1607 74.5008 20.8352 75.3844 19.7196 76.5001C18.604 77.6157 17.7203 78.9412 17.1196 80.4001C16.5189 81.859 16.213 83.4224 16.2197 85.0001V89.0001C16.2263 90.5778 15.9204 92.1412 15.3197 93.6001C14.719 95.059 13.8353 96.3845 12.7197 97.5001C11.6041 98.6157 10.2786 99.4994 8.81968 100.1C7.36078 100.701 5.79738 101.007 4.21967 101" stroke="white" stroke-width="7.8125" stroke-linecap="round" stroke-linejoin="round"/>
<path d="M36.2197 49C39.5334 49 42.2197 46.3138 42.2197 43C42.2197 39.6863 39.5334 37 36.2197 37C32.906 37 30.2197 39.6863 30.2197 43C30.2197 46.3138 32.906 49 36.2197 49Z" stroke="white" stroke-width="2" stroke-linecap="round" stroke-linejoin="round"/>
<path d="M60.2197 49C63.5334 49 66.2197 46.3138 66.2197 43C66.2197 39.6863 63.5334 37 60.2197 37C56.906 37 54.2197 39.6863 54.2197 43C54.2197 46.3138 56.906 49 60.2197 49Z" stroke="white" stroke-width="2" stroke-linecap="round" stroke-linejoin="round"/>
<path d="M42.2197 43.0001H54.2197" stroke="white" stroke-width="2" stroke-linecap="round" stroke-linejoin="round"/>
<path d="M14.3285 44C14.5311 43.2376 14.8073 42.5023 15.1411 41.8366C15.475 41.1709 15.8599 40.5879 16.2737 40.1213C16.6874 39.6547 17.1219 39.3137 17.5519 39.118C17.9819 38.9222 18.399 38.8757 18.7792 38.981L29.8873 41.9574" stroke="white" stroke-width="2" stroke-linecap="round" stroke-linejoin="round"/>
<path d="M66.3285 41.6776L77.4367 38.7012C77.8168 38.5959 78.2339 38.6425 78.6639 38.8382C79.094 39.034 79.5284 39.375 79.9422 39.8416C80.356 40.3082 80.7409 40.8912 81.0747 41.5569C81.4086 42.2226 81.6848 42.9579 81.8873 43.7203" stroke="white" stroke-width="2" stroke-linecap="round" stroke-linejoin="round"/>
<path d="M40.1196 21C37.7697 17.3225 34.5319 14.2958 30.7046 12.1986C26.8774 10.1015 22.5838 9.00149 18.2197 9C16.2792 12.3589 15.1148 16.1094 14.812 19.9767C14.5092 23.844 15.0756 27.73 16.4697 31.35C13.7357 35.3802 12.2568 40.13 12.2197 45V49C12.2197 55.3651 14.7482 61.4696 19.2491 65.9705C23.75 70.4714 29.8545 72.9999 36.2196 72.9999H60.2196C66.5848 72.9999 72.6893 70.4714 77.1902 65.9705C81.691 61.4696 84.2196 55.3651 84.2196 49V45C84.1824 40.13 82.7036 35.3802 79.9696 31.35C81.3636 27.73 81.93 23.844 81.6272 19.9767C81.3244 16.1094 80.1601 12.3589 78.2196 9C73.8554 9.00149 69.5619 10.1015 65.7346 12.1986C61.9073 14.2958 58.6695 17.3225 56.3196 21H40.1196Z" stroke="white" stroke-width="7.8125" stroke-linecap="round" stroke-linejoin="round"/>
<path d="M8.21967 30H88.2197" stroke="white" stroke-width="5" stroke-linecap="round" stroke-linejoin="round"/>
<path d="M18.3904 28L35.1973 4.16124C35.4505 3.79994 35.7885 3.50539 36.1821 3.30306C36.5757 3.10074 37.0131 2.99674 37.4562 3.00008C37.8994 3.00341 38.3351 3.11398 38.7256 3.3222C39.1161 3.53043 39.4496 3.83004 39.6973 4.1951L46.1064 13.778C46.3542 14.1553 46.6929 14.4653 47.0917 14.6798C47.4905 14.8943 47.9369 15.0067 48.3904 15.0067C48.844 15.0067 49.2904 14.8943 49.6892 14.6798C50.088 14.4653 50.4267 14.1553 50.6745 13.778L57.0836 4.1951C57.3313 3.83004 57.6648 3.53043 58.0553 3.3222C58.4458 3.11398 58.8815 3.00341 59.3246 3.00008C59.7678 2.99674 60.2051 3.10074 60.5988 3.30306C60.9924 3.50539 61.3304 3.79994 61.5836 4.16124L78.3904 28" fill="white"/>
<path d="M18.3904 28L35.1973 4.16124C35.4505 3.79994 35.7885 3.50539 36.1821 3.30306C36.5757 3.10074 37.0131 2.99674 37.4562 3.00008C37.8994 3.00341 38.3351 3.11398 38.7256 3.3222C39.1161 3.53043 39.4496 3.83004 39.6973 4.1951L46.1064 13.778C46.3542 14.1553 46.6929 14.4653 47.0917 14.6798C47.4905 14.8943 47.9369 15.0067 48.3904 15.0067C48.844 15.0067 49.2904 14.8943 49.6892 14.6798C50.088 14.4653 50.4267 14.1553 50.6745 13.778L57.0836 4.1951C57.3313 3.83004 57.6648 3.53043 58.0553 3.3222C58.4458 3.11398 58.8815 3.00341 59.3246 3.00008C59.7678 2.99674 60.2051 3.10074 60.5988 3.30306C60.9924 3.50539 61.3304 3.79994 61.5836 4.16124L78.3904 28" stroke="white" stroke-width="5.4179" stroke-linecap="round" stroke-linejoin="round"/>
<path d="M94.7553 88.9644L81.8568 105.412" stroke="white" stroke-width="4" stroke-linecap="round" stroke-linejoin="round"/>
<path d="M101.78 89.6629C108.408 89.6629 113.78 84.2903 113.78 77.6629C113.78 71.0355 108.408 65.6629 101.78 65.6629C95.1529 65.6629 89.7803 71.0355 89.7803 77.6629C89.7803 84.2903 95.1529 89.6629 101.78 89.6629Z" stroke="white" stroke-width="4" stroke-linecap="round" stroke-linejoin="round"/>
</svg>
